PathFileType	4	(x/y/z)	A01_FAST_T0024.trc
DataRate	CameraRate	NumFrames	NumMarkers	Units	OrigDataRate	OrigDataStartFrame	OrigNumFrames
240	240	7	48	mm	240	109	290
Frame#	Time	TOP_HEAD			R_AC			L_AC			R_ASIS			L_ASIS			R_PSIS			L_PSIS			SACRAL			L_IC			R_IC			L_GT			R_GT			R_LAT_KNEE			R_MED_KNEE			L_MED_KNEE			L_LAT_KNEE			R_TOE			L_TOE			R_1ST_MET			L_1ST_MET			L_5TH_MET			R_5TH_MET			R_LAT_ANK			R_MED_ANK			L_MED_ANK			L_LAT_ANK			L_HEEL_SUP			R_HEEL_SUP			L_HEEL_LAT			R_HEEL_LAT			L_HEEL_MED			R_HEEL_MED			R_LL_PROX_POST			R_LL_PROX_ANT			R_LL_DIST_ANT			R_LL_DIST_POST			R_THIGH_PROX_POST			R_THIGH_PROX_ANT			R_THIGH_DIST_ANT			R_THIGH_DIST_POST			L_PROS_PROX_ANT			L_PROS_PROX_POST			L_PROS_DIST_POST			L_PROS_DIST_ANT			L_THIGH_PROX_ANT			L_THIGH_PROX_POST			L_THIGH_DIST_POST			L_THIGH_DIST_ANT			
		X1	Y1	Z1	X2	Y2	Z2	X3	Y3	Z3	X4	Y4	Z4	X5	Y5	Z5	X6	Y6	Z6	X7	Y7	Z7	X8	Y8	Z8	X9	Y9	Z9	X10	Y10	Z10	X11	Y11	Z11	X12	Y12	Z12	X13	Y13	Z13	X14	Y14	Z14	X15	Y15	Z15	X16	Y16	Z16	X17	Y17	Z17	X18	Y18	Z18	X19	Y19	Z19	X20	Y20	Z20	X21	Y21	Z21	X22	Y22	Z22	X23	Y23	Z23	X24	Y24	Z24	X25	Y25	Z25	X26	Y26	Z26	X27	Y27	Z27	X28	Y28	Z28	X29	Y29	Z29	X30	Y30	Z30	X31	Y31	Z31	X32	Y32	Z32	X33	Y33	Z33	X34	Y34	Z34	X35	Y35	Z35	X36	Y36	Z36	X37	Y37	Z37	X38	Y38	Z38	X39	Y39	Z39	X40	Y40	Z40	X41	Y41	Z41	X42	Y42	Z42	X43	Y43	Z43	X44	Y44	Z44	X45	Y45	Z45	X46	Y46	Z46	X47	Y47	Z47	X48	Y48	Z48	

109	0.45156	68.923	1747	260.81	-180.6	1575.1	511.02	-182.82	1553.1	52.514	-206.45	1101.8	501.72	-186.35	1030.2	151.98	-408.93	1094	372.98	-397.63	1104.1	240.39	-420.11	1069.3	305.19	-205.06	1151.1	109.5	-234.11	1207.4	504.61	-258.62	955.25	114.23	-248.03	993.37	546.41	-100.33	607.67	505.61	-50.476	608.35	381.63	-296.25	559.9	351.32	-313.94	566.99	193.81	48.196	103.97	440.52	-218.16	79.801	260.56	-28.145	84.59	384.08	-300.73	56.415	314.94	-328.14	47.636	187.21	-72.834	79.699	510.46	-183.67	148.78	471.55	-163.23	156.23	371.67	-415.4	136.78	296.72	-446.68	131.76	228.37	-539.91	86.997	268.16	-274.76	115.86	400.54	-530.57	57.982	236.42	-272.96	92.967	436.45	-521.9	56.367	300.68	-261.76	88.779	376.9	-214.7	448.38	489.79	-151.91	430.12	522.14	-157.26	355.79	506.93	-208.34	365.39	485.49	-225.86	842.83	534.17	-169.99	888.29	538.66	-130.77	805.95	535.82	-184.53	763.19	528.27	-283.49	477.62	208.53	-337.55	487.38	196.73	-355.18	427.59	205.98	-301.63	425.06	216.05	-215.92	805.23	160.06	-283.59	819.98	140.97	-284.51	745.04	158.22	-222.16	732.53	175.49
110	0.45574	75.327	1746.4	261.32	-174.19	1574.4	511.42	-176.09	1552.9	52.994	-199.42	1101.2	501.61	-180.83	1029.6	152.02	-402.76	1093.6	373.56	-391.73	1103.9	240.97	-414.17	1069.1	305.78	-199.25	1150.6	109.72	-227.8	1206.5	504.88	-253.56	954.8	114.35	-241.44	992.72	546.67	-93.423	607.04	504.64	-44.173	608.1	380.5	-293.75	559.6	351.46	-311.38	566.79	193.95	67.515	107.32	441.5	-218.02	79.67	260.56	-8.1707	85.6	385.08	-300.64	56.328	314.89	-328.07	47.669	187.22	-52.926	80.102	511.42	-165.49	145.84	472.06	-145.17	153.49	372.16	-414.97	137.08	296.81	-446.22	132.22	228.39	-539.73	87.412	268.16	-255.55	110.12	401.06	-530.46	58.387	236.41	-253.23	87.436	437.1	-521.84	56.768	300.69	-241.8	83.291	377.67	-204.29	444.84	489.24	-141.07	428.26	521.67	-144.58	353.78	506.72	-195.88	362	485.18	-219.18	842.15	533.98	-163.31	887.61	538.5	-124.08	805.29	535.22	-177.84	762.54	527.67	-281.37	477.28	208.64	-335.38	487.31	196.83	-353.31	427.61	206.07	-299.76	424.82	216.14	-211.72	804.57	160.17	-279.28	819.7	141.13	-280.64	744.77	158.38	-218.38	731.9	175.59
111	0.45992	81.756	1745.8	261.83	-167.74	1573.6	511.83	-169.34	1552.7	53.488	-192.33	1100.6	501.51	-175.32	1028.9	152.06	-396.57	1093.2	374.17	-385.83	1103.6	241.59	-408.2	1068.8	306.41	-193.46	1150.1	109.95	-221.44	1205.6	505.17	-248.51	954.32	114.47	-234.84	992	546.95	-86.624	606.31	503.67	-37.996	607.73	379.35	-291.21	559.27	351.58	-308.77	566.58	194.07	86.642	110.89	442.46	-217.87	79.535	260.55	11.683	86.859	386.04	-300.54	56.245	314.85	-328	47.704	187.24	-33.139	80.757	512.36	-147.32	143.12	472.52	-127.12	150.96	372.61	-414.53	137.38	296.89	-445.77	132.68	228.4	-539.54	87.837	268.16	-236.26	104.63	401.53	-530.36	58.801	236.39	-233.44	82.168	437.7	-521.77	57.175	300.69	-221.76	78.071	378.39	-193.9	441.27	488.72	-130.29	426.37	521.2	-131.95	351.8	506.49	-183.44	358.65	484.88	-212.57	841.39	533.79	-156.67	886.83	538.34	-117.46	804.51	534.62	-171.26	761.79	527.07	-279.22	476.92	208.73	-333.17	487.23	196.94	-351.4	427.62	206.15	-297.87	424.55	216.23	-207.52	803.88	160.27	-274.96	819.4	141.3	-276.76	744.46	158.54	-214.58	731.25	175.68
112	0.4641	88.211	1745.1	262.34	-161.23	1572.8	512.23	-162.57	1552.5	53.995	-185.19	1100	501.42	-169.82	1028.1	152.11	-390.35	1092.7	374.81	-379.91	1103.3	242.23	-402.22	1068.4	307.07	-187.69	1149.6	110.19	-215.04	1204.7	505.48	-243.47	953.81	114.6	-228.23	991.22	547.23	-79.934	605.47	502.7	-31.939	607.24	378.19	-288.62	558.92	351.7	-306.1	566.36	194.19	105.56	114.68	443.39	-217.73	79.395	260.56	31.4	88.371	386.97	-300.45	56.169	314.81	-327.93	47.739	187.25	-13.484	81.662	513.25	-129.2	140.61	472.96	-109.1	148.65	373.03	-414.08	137.68	296.97	-445.3	133.14	228.42	-539.35	88.275	268.16	-216.93	99.391	401.97	-530.25	59.225	236.38	-213.6	77.173	438.27	-521.69	57.59	300.69	-201.69	73.132	379.08	-183.52	437.68	488.22	-119.56	424.48	520.74	-119.36	349.86	506.26	-171.02	355.33	484.59	-206.01	840.55	533.59	-150.07	885.94	538.18	-110.92	803.61	534.02	-164.76	760.95	526.46	-277.03	476.53	208.82	-330.92	487.13	197.03	-349.47	427.62	206.23	-295.94	424.27	216.31	-203.3	803.17	160.36	-270.64	819.06	141.47	-272.86	744.13	158.7	-210.77	730.58	175.76
113	0.46828	94.692	1744.3	262.86	-154.68	1572	512.64	-155.78	1552.2	54.516	-178.01	1099.3	501.33	-164.31	1027.3	152.16	-384.1	1092.2	375.49	-373.97	1103	242.91	-396.22	1068.1	307.76	-181.94	1149	110.42	-208.59	1203.7	505.8	-238.43	953.26	114.75	-221.59	990.38	547.51	-73.351	604.52	501.75	-25.999	606.62	377	-285.99	558.56	351.81	-303.38	566.11	194.29	124.27	118.7	444.27	-217.59	79.251	260.56	50.963	90.14	387.85	-300.36	56.1	314.77	-327.86	47.774	187.26	6.0315	82.813	514.1	-111.11	138.32	473.36	-91.123	146.56	373.41	-413.61	137.98	297.03	-444.83	133.6	228.44	-539.16	88.725	268.16	-197.57	94.425	402.37	-530.13	59.661	236.37	-193.73	72.458	438.79	-521.6	58.015	300.68	-181.59	68.484	379.73	-173.16	434.08	487.74	-108.88	422.58	520.29	-106.82	347.96	506.03	-158.63	352.06	484.3	-199.51	839.64	533.4	-143.51	884.95	538.02	-104.45	802.59	533.42	-158.37	760.02	525.85	-274.81	476.13	208.91	-328.64	487.02	197.12	-347.51	427.6	206.31	-293.98	423.97	216.39	-199.07	802.43	160.45	-266.31	818.69	141.64	-268.94	743.78	158.86	-206.94	729.89	175.83
114	0.47246	101.2	1743.6	263.37	-148.09	1571.1	513.05	-148.98	1552	55.051	-170.79	1098.5	501.25	-158.8	1026.5	152.22	-377.82	1091.7	376.19	-368.02	1102.6	243.61	-390.2	1067.7	308.48	-176.2	1148.4	110.66	-202.1	1202.6	506.13	-233.4	952.69	114.9	-214.94	989.48	547.81	-66.876	603.48	500.8	-20.17	605.9	375.81	-283.3	558.17	351.92	-300.6	565.85	194.39	142.74	122.93	445.1	-217.44	79.101	260.57	70.355	92.167	388.68	-300.27	56.04	314.74	-327.79	47.811	187.27	25.397	84.207	514.89	-93.085	136.26	473.73	-73.212	144.7	373.77	-413.13	138.28	297.09	-444.35	134.07	228.45	-538.96	89.189	268.15	-178.2	89.733	402.73	-530.01	60.11	236.35	-173.84	68.029	439.28	-521.51	58.452	300.68	-161.48	64.135	380.33	-162.82	430.48	487.28	-98.258	420.68	519.84	-94.337	346.12	505.78	-146.28	348.86	484.02	-193.07	838.65	533.21	-136.99	883.86	537.87	-98.065	801.46	532.82	-152.07	758.99	525.25	-272.55	475.71	208.98	-326.32	486.89	197.21	-345.51	427.58	206.38	-292	423.65	216.46	-194.83	801.66	160.53	-261.97	818.3	141.82	-265.01	743.39	159.02	-203.09	729.17	175.88
115	0.47664	107.73	1742.8	263.89	-141.44	1570.2	513.47	-142.16	1551.7	55.601	-163.53	1097.7	501.17	-153.29	1025.6	152.27	-371.51	1091.2	376.92	-362.04	1102.2	244.34	-384.15	1067.3	309.24	-170.48	1147.8	110.9	-195.57	1201.5	506.48	-228.37	952.08	115.07	-208.27	988.52	548.1	-60.505	602.33	499.88	-14.449	605.06	374.61	-280.57	557.76	352.02	-297.77	565.56	194.48	160.97	127.38	445.86	-217.29	78.947	260.58	89.557	94.455	389.43	-300.18	55.988	314.71	-327.72	47.848	187.28	44.605	85.837	515.63	-75.125	134.42	474.06	-55.38	143.07	374.09	-412.64	138.59	297.14	-443.86	134.54	228.47	-538.76	89.669	268.15	-158.83	85.321	403.07	-529.89	60.573	236.34	-153.96	63.89	439.72	-521.4	58.901	300.67	-141.38	60.092	380.9	-152.5	426.9	486.83	-87.701	418.79	519.4	-81.92	344.34	505.53	-133.96	345.72	483.74	-186.69	837.58	533.03	-130.51	882.68	537.73	-91.752	800.21	532.24	-145.86	757.88	524.67	-270.25	475.26	209.05	-323.96	486.74	197.29	-343.47	427.53	206.44	-289.97	423.31	216.52	-190.57	800.86	160.61	-257.62	817.87	142	-261.05	742.98	159.17	-199.22	728.43	175.92
